<svg xmlns="http://www.w3.org/2000/svg" version="1.0" preserveAspectRatio="xMidYMid meet" viewBox="17.25 64.09 396.21 266.97">

<g transform="translate(0.000000,500.000000) scale(0.100000,-0.100000)" fill="#000000" stroke="none">
<path d="M1364 4346 c-111 -27 -200 -116 -219 -219 -7 -35 -8 -37 -21 -19 -28 40 -182 162 -205 162 -34 0 -105 -37 -123 -65 -8 -13 -21 -44 -27 -70 l-12 -47 -42 7 c-36 5 -47 2 -69 -17 -42 -38 -42 -67 -1 -126 19 -29 33 -52 30 -52 -14 0 -62 30 -79 49 -11 12 -25 21 -33 21 -16 0 -33 -40 -33 -76 0 -13 -4 -24 -10 -24 -5 0 -10 -9 -10 -19 0 -14 -5 -18 -20 -14 -17 5 -20 0 -20 -30 0 -51 44 -216 76 -283 33 -69 108 -147 182 -190 l54 -31 -61 -6 c-121 -13 -276 -99 -377 -210 -94 -104 -199 -346 -165 -380 10 -9 21 -1 53 38 77 93 243 251 318 302 175 118 383 198 568 219 l64 7 -26 -28 c-38 -41 -56 -114 -55 -219 1 -105 19 -218 35 -223 7 -2 13 24 17 72 8 88 19 117 81 208 41 61 46 75 46 124 0 49 2 54 16 43 48 -41 120 -229 155 -407 l22 -111 -93 -138 c-51 -77 -109 -161 -128 -187 l-34 -48 -135 198 c-73 109 -138 200 -143 201 -6 2 -9 -120 -8 -330 l3 -333 5 320 5 320 134 -197 c74 -109 138 -198 141 -198 4 0 61 81 126 180 65 99 122 180 126 180 13 0 21 -221 15 -425 l-6 -210 167 3 c270 4 293 8 57 10 -170 2 -216 5 -207 14 18 18 17 668 -1 668 -8 0 -19 32 -30 92 -40 209 -143 441 -190 425 -8 -2 -12 -26 -13 -65 0 -48 -5 -69 -23 -93 -76 -102 -100 -156 -102 -224 l0 -30 -11 25 c-18 44 -14 239 6 288 19 43 67 92 91 92 8 0 17 5 21 12 5 8 -14 9 -77 4 -343 -28 -654 -189 -888 -460 -53 -61 -87 -93 -89 -84 -5 24 53 173 93 238 46 75 145 174 219 219 129 77 272 104 361 67 21 -9 40 -14 43 -11 7 7 10 5 -108 62 -125 61 -194 122 -239 215 -35 70 -71 203 -71 257 l0 35 42 -41 c24 -22 67 -53 97 -68 69 -34 98 -64 106 -109 8 -41 15 -44 40 -16 27 30 58 25 158 -30 51 -27 140 -70 197 -95 94 -41 112 -52 172 -117 l67 -71 83 5 c148 10 317 83 361 157 10 18 17 50 17 84 0 71 -47 165 -108 215 -38 31 -53 37 -107 40 -55 4 -70 0 -115 -24 -28 -15 -60 -40 -71 -55 -25 -35 -24 -96 0 -133 22 -33 19 -46 -9 -46 -14 0 -21 9 -25 38 -11 66 -36 121 -66 147 -27 22 -38 24 -102 23 -58 -1 -84 3 -134 25 -89 39 -124 36 -177 -13 -24 -22 -50 -40 -59 -40 -9 0 -38 13 -64 30 -26 16 -85 42 -132 56 -112 34 -125 45 -116 104 9 62 19 69 52 38 34 -32 75 -49 93 -38 11 7 10 14 -6 35 -63 89 -66 103 -33 136 17 17 28 20 63 15 49 -8 60 1 71 54 9 47 30 77 68 100 61 38 84 29 190 -72 102 -98 121 -132 67 -121 -22 4 -36 0 -51 -13 -12 -11 -42 -26 -67 -34 -40 -13 -47 -20 -55 -50 -4 -19 -17 -65 -29 -103 -21 -67 -20 -84 4 -74 14 5 34 41 67 120 17 41 24 47 49 47 18 0 52 15 82 35 56 38 70 41 88 23 19 -19 15 -25 -34 -50 -69 -34 -91 -78 -64 -129 17 -30 29 -22 41 27 12 45 14 47 94 84 46 21 86 43 89 49 9 14 26 14 26 1 0 -5 -21 -20 -47 -32 -88 -43 -116 -126 -59 -174 15 -14 32 -22 37 -18 5 3 21 28 35 55 28 56 77 86 123 74 60 -14 101 -16 134 -7 32 9 38 7 59 -15 49 -53 83 -50 114 9 17 32 16 32 -15 58 -17 15 -31 33 -31 42 0 16 25 42 51 50 29 11 79 -20 94 -56 19 -44 19 -151 0 -236 -18 -82 -19 -123 -3 -118 18 6 34 78 45 201 8 88 13 112 30 129 34 33 53 18 53 -42 0 -52 13 -67 24 -27 3 12 6 51 6 87 0 72 13 108 27 75 14 -34 7 -187 -10 -232 -9 -23 -46 -90 -82 -148 -37 -58 -64 -112 -62 -119 3 -8 1 -18 -5 -24 -8 -8 7 -16 48 -27 132 -37 153 -45 254 -86 132 -54 221 -63 315 -30 32 12 66 27 73 35 12 12 1 14 -74 12 l-89 -1 -133 68 c-74 37 -141 67 -150 67 -10 0 -23 4 -31 9 -11 7 -7 12 15 24 41 22 111 94 142 146 14 24 34 73 44 110 31 113 20 301 -18 287 -7 -3 -23 8 -34 24 -32 45 -63 48 -105 11 -33 -29 -41 -31 -110 -31 -64 0 -77 -3 -103 -25 -38 -32 -42 -31 -42 3 -1 42 -33 104 -75 141 -56 49 -100 64 -158 57 -46 -7 -51 -5 -88 29 -34 30 -46 35 -87 34 -26 0 -70 -6 -98 -13z m184 -40 c30 -33 32 -34 91 -29 52 5 65 2 105 -21 58 -34 93 -85 108 -158 7 -32 15 -58 19 -58 4 0 23 16 43 36 l37 37 68 -7 c67 -7 70 -6 105 25 48 42 77 35 106 -26 17 -35 25 -43 35 -35 20 16 28 -82 14 -170 -21 -139 -94 -256 -196 -316 -43 -25 -179 -61 -190 -50 -3 3 17 40 44 83 104 162 132 252 113 366 -10 65 -16 77 -35 77 -14 0 -19 -10 -30 -68 -6 -27 -10 -32 -26 -27 -24 8 -69 -19 -69 -41 0 -8 -4 -12 -10 -9 -5 3 -10 15 -10 27 0 11 -15 35 -34 54 -47 47 -87 46 -132 -1 -30 -32 -33 -33 -39 -15 -7 22 -63 65 -72 56 -3 -3 1 -14 10 -24 18 -20 23 -62 7 -62 -5 0 -16 13 -25 30 -22 42 -68 62 -152 68 -68 4 -74 3 -114 -27 -50 -36 -59 -38 -59 -11 0 17 -6 20 -35 18 -44 -3 -56 9 -62 65 -4 36 0 55 23 97 51 94 151 149 270 150 57 0 63 -2 92 -34z m-106 -306 c11 -24 18 -30 21 -20 3 8 8 23 11 32 11 36 81 -10 120 -79 5 -9 -3 -10 -28 -6 -26 4 -42 0 -64 -16 -21 -15 -45 -21 -80 -21 -61 0 -96 -25 -123 -87 -21 -49 -31 -53 -53 -21 -35 50 -8 106 69 142 40 19 55 32 55 47 0 30 -26 33 -61 7 -18 -12 -60 -34 -93 -48 -53 -22 -64 -31 -83 -70 l-22 -45 -1 32 c0 41 18 58 105 98 39 18 91 46 115 64 57 41 89 39 112 -9z m-339 -21 c-20 -16 -48 -29 -62 -29 -42 0 -68 -26 -92 -91 -12 -33 -26 -62 -30 -65 -13 -7 -11 3 5 34 8 15 17 48 21 74 8 54 12 58 77 82 25 9 52 23 58 31 9 11 17 11 35 3 l24 -11 -36 -28z m142 11 c-7 -21 -7 -21 -27 -3 -20 18 -20 18 4 24 29 7 31 5 23 -21z m415 -51 c0 -24 -4 -29 -24 -29 -23 0 -23 0 -7 34 19 39 31 37 31 -5z m80 -53 c0 -14 -41 -56 -56 -56 -7 0 -22 13 -33 29 l-21 29 21 5 c11 3 23 15 26 26 5 20 5 20 34 -1 16 -12 29 -26 29 -32z m-140 15 c23 -7 21 -8 -15 -14 -22 -4 -51 -7 -64 -7 -20 0 -21 2 -11 15 13 16 48 18 90 6z m-920 -140 c41 -13 95 -36 119 -52 25 -16 52 -29 61 -29 9 0 31 15 49 34 57 59 77 62 167 27 62 -24 95 -31 150 -31 89 0 117 -19 139 -92 19 -67 19 -103 -2 -134 -26 -40 -20 -174 7 -174 18 0 30 49 30 120 0 68 0 68 30 75 42 9 44 19 15 70 -33 55 -28 89 18 133 33 32 102 62 142 62 129 0 261 -229 189 -328 -46 -62 -162 -116 -308 -143 -92 -17 -119 -7 -166 57 -42 56 -90 86 -240 149 -35 15 -100 47 -143 72 -91 51 -136 63 -156 39 -18 -21 -31 -20 -31 3 0 31 -39 70 -100 101 -61 31 -120 76 -120 91 0 5 17 1 38 -9 20 -11 71 -29 112 -41z m1570 -302 c69 -34 150 -67 180 -74 l55 -12 -59 -12 c-78 -17 -113 -10 -260 49 -67 27 -156 57 -196 67 l-72 17 68 21 c91 28 127 21 284 -56z m-866 -52 c-7 -74 -24 -81 -24 -11 0 42 16 91 26 81 3 -2 2 -34 -2 -70z"/>
<path d="M1690 2439 c-72 -182 -129 -334 -126 -337 5 -5 26 38 73 156 l25 62 168 0 167 0 44 -106 c24 -58 47 -108 52 -111 13 -8 11 -3 -127 347 -69 173 -129 316 -134 318 -6 2 -69 -146 -142 -329z m221 103 l76 -197 -78 -3 c-44 -2 -114 -2 -158 0 l-78 3 76 198 c42 108 78 197 81 197 3 0 39 -89 81 -198z"/>
<path d="M2150 2430 c0 -213 4 -330 10 -330 6 0 10 115 10 325 l0 325 105 0 c57 0 127 -5 155 -11 155 -33 187 -243 50 -323 -27 -16 -59 -22 -135 -26 l-100 -5 154 -140 c84 -77 160 -142 169 -144 8 -2 -51 57 -132 130 l-148 134 91 11 c73 9 97 16 127 39 67 51 92 152 59 232 -39 93 -85 112 -272 113 l-143 0 0 -330z"/>
<path d="M2650 2430 c0 -213 4 -330 10 -330 6 0 10 115 10 325 l0 325 105 0 c57 0 127 -5 155 -11 155 -33 187 -243 50 -323 -27 -16 -59 -22 -135 -26 l-100 -5 154 -140 c84 -77 160 -142 169 -144 8 -2 -51 57 -132 130 l-148 134 91 11 c73 9 97 16 127 39 67 51 92 152 59 232 -39 93 -85 112 -272 113 l-143 0 0 -330z"/>
<path d="M3120 2755 c0 -3 54 -90 120 -195 l119 -190 4 -137 3 -138 2 138 2 138 120 191 c67 105 118 193 115 196 -7 7 1 18 -115 -168 -57 -91 -108 -173 -115 -182 -10 -16 -27 6 -126 167 -99 159 -129 202 -129 180z"/>
<path d="M3490 2020 c0 -5 5 -10 10 -10 6 0 10 5 10 10 0 6 -4 10 -10 10 -5 0 -10 -4 -10 -10z"/>
<path d="M3215 1894 c-33 -20 -93 -59 -133 -87 -40 -27 -75 -48 -77 -45 -2 2 7 21 20 41 24 35 33 68 18 66 -12 -1 -88 -157 -80 -165 4 -4 39 18 79 48 40 30 102 75 138 99 85 56 115 79 104 79 -5 0 -36 -16 -69 -36z"/>
<path d="M3328 1878 c-77 -72 -128 -136 -128 -160 0 -18 5 -20 40 -15 42 5 197 74 188 82 -3 3 -34 -8 -70 -25 -77 -36 -138 -49 -138 -30 0 7 38 51 85 98 95 94 112 133 23 50z"/>
<path d="M3635 1906 c-134 -43 -235 -143 -194 -192 22 -26 100 -9 201 43 49 25 87 48 85 49 -2 2 -48 -16 -103 -41 -113 -51 -164 -58 -164 -22 0 42 25 64 81 70 28 4 56 10 63 15 6 5 23 12 37 15 28 7 79 50 79 67 0 13 -35 12 -85 -4z m36 -22 c-26 -18 -114 -54 -133 -54 -38 0 97 69 137 70 18 0 17 -1 -4 -16z"/>
<path d="M3885 1855 c-63 -55 -125 -97 -125 -86 0 6 18 29 40 52 22 24 39 47 37 52 -4 14 -63 -49 -88 -93 -10 -19 -25 -43 -31 -52 -17 -23 -4 -33 19 -14 10 8 56 45 102 81 78 62 83 65 77 38 -4 -15 -10 -54 -13 -85 -6 -69 4 -73 73 -33 42 25 168 155 158 164 -2 3 -36 -27 -74 -66 -72 -72 -128 -109 -144 -93 -5 5 -2 36 8 74 27 108 23 114 -39 61z"/>
</g>
</svg>